<?xml version="1.0" encoding="utf-8"?>
<!-- Generator: Adobe Illustrator 16.0.0, SVG Export Plug-In . SVG Version: 6.00 Build 0)  -->
<!DOCTYPE svg PUBLIC "-//W3C//DTD SVG 1.1//EN" "http://www.w3.org/Graphics/SVG/1.1/DTD/svg11.dtd">
<svg version="1.1" id="Capa_1" xmlns="http://www.w3.org/2000/svg" xmlns:xlink="http://www.w3.org/1999/xlink" x="0px" y="0px"
	 width="32.145px" height="33.892px" viewBox="-10.717 -22.599 32.145 33.892"
	 enable-background="new -10.717 -22.599 32.145 33.892" xml:space="preserve">
<g>
	<circle fill="#646363" cx="5.355" cy="-5.653" r="12.756"/>
	<g>
		<g>
			<path fill="#FFFFFF" d="M9.316-10.48c0.483,0,0.873,0.391,0.873,0.876c0,0.483-0.39,0.876-0.873,0.876
				c-0.486,0-0.879-0.393-0.879-0.876C8.437-10.089,8.83-10.48,9.316-10.48z"/>
			<path fill="#FFFFFF" d="M5.415-9.355c-2.032,0-3.684,1.652-3.684,3.681c0,2.033,1.649,3.688,3.684,3.688s3.684-1.655,3.684-3.688
				C9.102-7.703,7.45-9.355,5.415-9.355z M5.415-3.315c-1.302,0-2.361-1.053-2.361-2.358c0-1.296,1.059-2.355,2.361-2.355
				s2.36,1.062,2.36,2.355C7.775-4.369,6.717-3.315,5.415-3.315z"/>
			<path fill="#FFFFFF" d="M8.343,1.806H2.37c-2.477,0-4.494-2.016-4.494-4.491v-5.971c0-2.479,2.017-4.494,4.494-4.494h5.974
				c2.479,0,4.494,2.016,4.494,4.494v5.971C12.834-0.21,10.816,1.806,8.343,1.806z M2.37-11.747c-1.701,0-3.086,1.39-3.086,3.088
				v5.971c0,1.699,1.383,3.088,3.086,3.088h5.974c1.699,0,3.088-1.389,3.088-3.088v-5.971c0-1.698-1.389-3.088-3.088-3.088H2.37z"/>
		</g>
	</g>
</g>
</svg>
