<?xml version="1.0" encoding="utf-8"?>
<!-- Generator: Adobe Illustrator 16.0.0, SVG Export Plug-In . SVG Version: 6.00 Build 0)  -->
<!DOCTYPE svg PUBLIC "-//W3C//DTD SVG 1.1//EN" "http://www.w3.org/Graphics/SVG/1.1/DTD/svg11.dtd">
<svg version="1.1" id="Capa_1" xmlns="http://www.w3.org/2000/svg" xmlns:xlink="http://www.w3.org/1999/xlink" x="0px" y="0px"
	 width="32.145px" height="33.892px" viewBox="-10.717 -22.599 32.145 33.892"
	 enable-background="new -10.717 -22.599 32.145 33.892" xml:space="preserve">
<g>
	<circle fill="#646363" cx="5.355" cy="-5.653" r="12.756"/>
	<path fill="#FFFFFF" d="M-1.536,1.568l1.065-3.973c-0.604-1.081-0.921-2.304-0.921-3.541c0-4.037,3.289-7.323,7.326-7.323
		c4.038,0,7.325,3.289,7.325,7.323c0,4.044-3.287,7.329-7.325,7.329c-1.215,0-2.412-0.311-3.482-0.891L-1.536,1.568z M2.652-0.995
		l0.249,0.152c0.924,0.554,1.97,0.838,3.036,0.838c3.276,0,5.942-2.663,5.942-5.94c0-3.275-2.666-5.94-5.942-5.94
		c-3.276,0-5.943,2.667-5.943,5.94c0,1.084,0.303,2.152,0.87,3.081l0.154,0.252L0.42-0.397L2.652-0.995z"/>
	<path fill="#FFFFFF" d="M8.66-4.924C8.358-5.104,7.968-5.305,7.611-5.158c-0.27,0.111-0.445,0.54-0.624,0.756
		C6.896-4.291,6.79-4.276,6.652-4.331c-1.027-0.406-1.81-1.091-2.374-2.033C4.182-6.512,4.201-6.626,4.313-6.761
		C4.485-6.958,4.699-7.19,4.746-7.459c0.045-0.272-0.081-0.584-0.192-0.828C4.41-8.596,4.25-9.031,3.941-9.208
		C3.657-9.37,3.282-9.277,3.03-9.074C2.598-8.716,2.386-8.161,2.392-7.612C2.395-7.454,2.412-7.3,2.452-7.147
		c0.086,0.366,0.255,0.705,0.444,1.025C3.039-5.876,3.191-5.642,3.36-5.41c0.549,0.744,1.228,1.386,2.016,1.869
		c0.397,0.243,0.819,0.454,1.257,0.595C7.125-2.779,7.564-2.612,8.1-2.712c0.554-0.105,1.104-0.448,1.321-0.99
		c0.067-0.158,0.1-0.331,0.064-0.502C9.41-4.549,8.941-4.757,8.66-4.924z"/>
</g>
</svg>
