<?xml version="1.0" encoding="utf-8"?>
<!-- Generator: Adobe Illustrator 16.0.0, SVG Export Plug-In . SVG Version: 6.00 Build 0)  -->
<!DOCTYPE svg PUBLIC "-//W3C//DTD SVG 1.1//EN" "http://www.w3.org/Graphics/SVG/1.1/DTD/svg11.dtd">
<svg version="1.1" id="Capa_1" xmlns="http://www.w3.org/2000/svg" xmlns:xlink="http://www.w3.org/1999/xlink" x="0px" y="0px"
	 width="32.145px" height="33.892px" viewBox="-10.717 -22.599 32.145 33.892"
	 enable-background="new -10.717 -22.599 32.145 33.892" xml:space="preserve">
<g>
	<circle fill="#646363" cx="5.355" cy="-5.653" r="12.756"/>
	<path fill="#FFFFFF" d="M12.187-7.511c0-1.689-1.377-3.063-3.064-3.063H1.29c-1.692,0-3.063,1.371-3.063,3.063v3.645
		c0,1.693,1.371,3.067,3.063,3.067h7.83c1.69,0,3.062-1.374,3.062-3.067v-3.645H12.187z M7.579-5.41L4.067-3.673
		C3.93-3.597,3.462-3.702,3.462-3.854v-3.568c0-0.16,0.47-0.258,0.609-0.18l3.357,1.83C7.576-5.693,7.722-5.491,7.579-5.41z"/>
</g>
</svg>
