<?xml version="1.0" encoding="utf-8"?>
<!-- Generator: Adobe Illustrator 16.0.0, SVG Export Plug-In . SVG Version: 6.00 Build 0)  -->
<!DOCTYPE svg PUBLIC "-//W3C//DTD SVG 1.1//EN" "http://www.w3.org/Graphics/SVG/1.1/DTD/svg11.dtd">
<svg version="1.1" id="Capa_1" xmlns="http://www.w3.org/2000/svg" xmlns:xlink="http://www.w3.org/1999/xlink" x="0px" y="0px"
	 width="32.145px" height="33.892px" viewBox="-10.717 -22.599 32.145 33.892"
	 enable-background="new -10.717 -22.599 32.145 33.892" xml:space="preserve">
<g>
	<g>
		<path fill="#646363" d="M18.111-5.656c0-7.051-5.707-12.757-12.755-12.757c-7.045,0-12.757,5.709-12.757,12.757
			c0,6.364,4.666,11.643,10.765,12.598v-8.913H0.123v-3.686h3.241v-2.811c0-3.198,1.906-4.962,4.821-4.962
			c1.395,0,2.854,0.246,2.854,0.246v3.141H9.427c-1.588,0-2.08,0.985-2.08,1.993v2.396h3.545l-0.574,3.683H7.347v8.916
			C13.447,5.987,18.111,0.71,18.111-5.656z"/>
		<path fill="#FFFFFF" d="M10.318-1.971l0.574-3.686H7.347V-8.05c0-1.008,0.498-1.993,2.08-1.993h1.611v-3.141
			c0,0-1.459-0.246-2.854-0.246c-2.916,0-4.821,1.764-4.821,4.962v2.814H0.123v3.688h3.241v8.913
			c0.649,0.105,1.314,0.158,1.992,0.158c0.679,0,1.342-0.059,1.991-0.161v-8.916H10.318z"/>
	</g>
</g>
</svg>
