<?xml version="1.0" encoding="utf-8"?>
<!-- Generator: Adobe Illustrator 16.0.0, SVG Export Plug-In . SVG Version: 6.00 Build 0)  -->
<!DOCTYPE svg PUBLIC "-//W3C//DTD SVG 1.1//EN" "http://www.w3.org/Graphics/SVG/1.1/DTD/svg11.dtd">
<svg version="1.1" id="Capa_1" xmlns="http://www.w3.org/2000/svg" xmlns:xlink="http://www.w3.org/1999/xlink" x="0px" y="0px"
	 width="32.145px" height="33.892px" viewBox="-10.717 -22.599 32.145 33.892"
	 enable-background="new -10.717 -22.599 32.145 33.892" xml:space="preserve">
<g>
	<circle fill="#646363" cx="5.355" cy="-5.653" r="12.756"/>
	<path fill="#FFFFFF" d="M4.374-2.882C4.362-2.835,4.35-2.797,4.341-2.759C3.774-0.532,3.711-0.04,3.123,0.997
		c-0.278,0.492-0.59,0.958-0.939,1.4C2.146,2.453,2.109,2.515,2.031,2.503c-0.088-0.023-0.094-0.1-0.105-0.161
		C1.833,1.659,1.782,0.979,1.803,0.294C1.833-0.591,1.943-0.898,3.09-5.722c0.018-0.075,0-0.135-0.028-0.204
		C2.79-6.664,2.736-7.417,2.976-8.182c0.519-1.645,2.388-1.771,2.711-0.412c0.203,0.836-0.33,1.938-0.74,3.564
		C4.611-3.69,6.189-2.735,7.541-3.714c1.242-0.904,1.723-3.067,1.635-4.597c-0.185-3.062-3.535-3.721-5.662-2.736
		C1.078-9.916,0.522-6.901,1.623-5.519c0.142,0.177,0.246,0.283,0.202,0.466C1.751-4.777,1.688-4.502,1.614-4.225
		C1.557-4.021,1.387-3.948,1.179-4.027C0.774-4.193,0.435-4.454,0.162-4.792c-0.936-1.159-1.203-3.45,0.032-5.385
		c1.368-2.149,3.916-3.016,6.244-2.754c2.775,0.315,4.533,2.213,4.864,4.367c0.149,0.979,0.038,3.4-1.336,5.108
		C8.378-1.493,5.813-1.364,4.628-2.571C4.539-2.656,4.464-2.771,4.374-2.882z"/>
</g>
</svg>
