<?xml version="1.0" encoding="utf-8"?>
<!-- Generator: Adobe Illustrator 16.0.0, SVG Export Plug-In . SVG Version: 6.00 Build 0)  -->
<!DOCTYPE svg PUBLIC "-//W3C//DTD SVG 1.1//EN" "http://www.w3.org/Graphics/SVG/1.1/DTD/svg11.dtd">
<svg version="1.1" id="Capa_1" xmlns="http://www.w3.org/2000/svg" xmlns:xlink="http://www.w3.org/1999/xlink" x="0px" y="0px"
	 width="32.145px" height="33.892px" viewBox="-10.717 -22.599 32.145 33.892"
	 enable-background="new -10.717 -22.599 32.145 33.892" xml:space="preserve">
<g>
	<circle fill="#646363" cx="5.355" cy="-5.653" r="12.756"/>
	<path fill="#FFFFFF" d="M12.404-10.024c-0.442,0.201-0.932,0.324-1.406,0.398c0.226-0.035,0.557-0.444,0.691-0.608
		c0.205-0.255,0.369-0.543,0.469-0.855c0.012-0.023,0.018-0.054-0.006-0.069c-0.032-0.012-0.05-0.006-0.076,0.003
		c-0.533,0.286-1.081,0.495-1.664,0.639c-0.05,0.012-0.085,0-0.117-0.029c-0.05-0.057-0.094-0.108-0.146-0.151
		c-0.246-0.207-0.51-0.375-0.809-0.495C8.95-11.35,8.525-11.416,8.1-11.393c-0.413,0.028-0.812,0.144-1.175,0.334
		c-0.364,0.192-0.688,0.456-0.946,0.776c-0.27,0.33-0.464,0.719-0.567,1.134c-0.1,0.396-0.089,0.792-0.031,1.197
		c0.01,0.066,0.004,0.075-0.059,0.066c-2.29-0.338-4.189-1.157-5.73-2.915c-0.066-0.079-0.105-0.079-0.16,0.006
		c-0.675,1.011-0.347,2.637,0.495,3.432c0.111,0.104,0.229,0.209,0.352,0.312C0.234-7.042-0.327-7.105-0.828-7.363
		c-0.063-0.042-0.098-0.019-0.105,0.06c-0.006,0.107,0.003,0.209,0.019,0.327c0.132,1.025,0.839,1.973,1.812,2.342
		c0.114,0.049,0.243,0.091,0.366,0.111C1.041-4.474,0.815-4.438,0.18-4.485c-0.078-0.02-0.107,0.023-0.078,0.098
		C0.58-3.087,1.611-2.7,2.381-2.478C2.484-2.46,2.586-2.46,2.693-2.434C2.682-2.428,2.676-2.428,2.67-2.416
		c-0.255,0.39-1.14,0.677-1.554,0.823c-0.75,0.264-1.569,0.381-2.364,0.302c-0.126-0.018-0.152-0.018-0.186,0
		c-0.035,0.021-0.009,0.05,0.034,0.085c0.163,0.105,0.327,0.199,0.492,0.296c0.507,0.264,1.031,0.48,1.581,0.633
		c2.839,0.779,6.04,0.202,8.172-1.913c1.673-1.664,2.262-3.958,2.262-6.256c0-0.089,0.105-0.141,0.167-0.186
		c0.439-0.327,0.791-0.719,1.113-1.154c0.073-0.1,0.073-0.186,0.073-0.223c0-0.006,0-0.012,0-0.012
		C12.459-10.06,12.459-10.051,12.404-10.024z"/>
</g>
</svg>
