<?xml version="1.0" encoding="utf-8"?>
<!-- Generator: Adobe Illustrator 16.0.0, SVG Export Plug-In . SVG Version: 6.00 Build 0)  -->
<!DOCTYPE svg PUBLIC "-//W3C//DTD SVG 1.1//EN" "http://www.w3.org/Graphics/SVG/1.1/DTD/svg11.dtd">
<svg version="1.1" id="Capa_1" xmlns="http://www.w3.org/2000/svg" xmlns:xlink="http://www.w3.org/1999/xlink" x="0px" y="0px"
	 width="34.016px" height="34.016px" viewBox="0 0 34.016 34.016" enable-background="new 0 0 34.016 34.016" xml:space="preserve">
<g>
	<path fill="#FFFFFF" d="M23.098,25.708l-3.57-5.915c1.658-1.169,2.75-3.091,2.75-5.271c0-3.556-2.893-6.446-6.45-6.446
		c-3.559,0-6.454,2.891-6.454,6.446c0,3.559,2.895,6.454,6.454,6.454c0.516,0,1.012-0.078,1.495-0.191l3.721,6.165L23.098,25.708z
		 M11.772,14.522c0-2.231,1.82-4.048,4.055-4.048c2.233,0,4.052,1.816,4.052,4.048c0,2.234-1.819,4.055-4.052,4.055
		C13.593,18.577,11.772,16.757,11.772,14.522z"/>
</g>
<g>
	<path fill="none" stroke="#FFFFFF" stroke-width="0.224" d="M17.009,32.526c8.57,0,15.516-6.949,15.516-15.518
		c0-8.57-6.945-15.52-15.516-15.52c-8.573,0-15.519,6.949-15.519,15.52C1.491,25.577,8.436,32.526,17.009,32.526z"/>
</g>
</svg>
