<?xml version="1.0" encoding="utf-8"?>
<!-- Generator: Adobe Illustrator 16.0.0, SVG Export Plug-In . SVG Version: 6.00 Build 0)  -->
<!DOCTYPE svg PUBLIC "-//W3C//DTD SVG 1.1//EN" "http://www.w3.org/Graphics/SVG/1.1/DTD/svg11.dtd">
<svg version="1.1" id="Capa_1" xmlns="http://www.w3.org/2000/svg" xmlns:xlink="http://www.w3.org/1999/xlink" x="0px" y="0px"
	 width="175.634px" height="119.282px" viewBox="0 0 175.634 119.282" enable-background="new 0 0 175.634 119.282"
	 xml:space="preserve">
<g>
	<g id="cava">
		<path fill="#5E5E5E" d="M64.248,106.031c-0.949-0.496-2.285-1.164-4.207-1.164c-3.604,0-6.127,2.672-6.127,6.277
			c0,3.301,2.156,6.152,5.955,6.152c2.48,0,3.883-1.078,4.768-1.75l-0.129,2.504c-1.035,0.52-2.502,1.23-5.049,1.23
			c-6.279,0-8.113-4.965-8.113-7.875c0-4.32,3.625-8.59,9.43-8.59c1.684,0,2.676,0.348,3.473,0.625V106.031z"/>
		<path fill="#5E5E5E" d="M83.936,114.727c1.164,2.523,1.92,3.562,2.523,4.383l-3.84,0.039c0-0.711-0.088-1.531-0.67-2.844
			L81,114.125h-5.674l-0.82,1.746c-0.281,0.605-0.906,2.004-0.82,3.277h-3.949c0.539-0.625,1.016-1.207,2.352-3.859l6.236-12.387
			h0.129L83.936,114.727z M76.232,112.227h3.926l-1.877-4.34L76.232,112.227z"/>
		<path fill="#5E5E5E" d="M92.871,102.969c-0.125,0.473-0.148,0.648-0.148,0.859c0,0.629,0.32,1.879,0.688,2.852l3.367,8.562
			l3.477-8.281c0.344-0.844,0.773-2.031,0.773-2.938c0-0.234-0.023-0.473-0.195-1.055l4.211,0.062
			c-0.93,1.078-1.578,2.312-2.141,3.648l-5.281,12.578h-1.836l-4.555-11.695c-0.191-0.496-0.75-1.789-1.25-2.781
			c-0.492-0.992-0.688-1.25-1.188-1.812H92.871z"/>
		<path fill="#5E5E5E" d="M121.183,114.727c1.172,2.523,1.922,3.562,2.531,4.383l-3.844,0.039c0-0.711-0.086-1.531-0.672-2.844
			l-0.945-2.18h-5.68l-0.82,1.746c-0.273,0.605-0.906,2.004-0.812,3.277h-3.953c0.539-0.625,1.016-1.207,2.352-3.859l6.234-12.387
			h0.133L121.183,114.727z M113.48,112.227h3.93l-1.875-4.34L113.48,112.227z"/>
	</g>
	<path id="línia" fill-rule="evenodd" clip-rule="evenodd" fill="#5E5E5E" d="M87.816,94.594c59.508,0,83.414,0.82,83.414,0.82
		s-23.906,0.613-83.414,0.613c-59.503,0-83.412-0.613-83.412-0.613S28.312,94.594,87.816,94.594L87.816,94.594z"/>
	<g id="CellerVell">
		<path fill-rule="evenodd" clip-rule="evenodd" fill="#5E5E5E" d="M87.333,78.34c-0.029,3.949-0.059,6.316-0.23,7.613
			c-0.145,1.008-0.348,1.266-0.576,1.613c0.777-0.059,1.556-0.113,2.304-0.113c0.781,0,1.559,0.055,2.336,0.113
			c-0.227-0.434-0.43-0.777-0.578-1.699c-0.141-0.984-0.199-1.992-0.258-4.07v-2.969l2.508,0.059c0.781,0.895,1.273,1.5,3.059,4.559
			c0.777,1.352,1.527,2.711,2.137,4.121c1.117-0.086,1.672-0.145,2.531-0.145c0.695,0,1.297,0.059,1.992,0.145
			c-1.266-1.125-1.875-2.074-3.43-4.527l-2.945-4.641c1.391-0.32,4.359-2.109,4.359-5.625c0-5.508-4.242-5.711-6.836-5.711
			c-1.383,0-2.656,0.062-3.516,0.062c-2.281,0-2.686-0.062-3.578-0.203c0.345,0.805,0.72,2.363,0.72,6.227V78.34z M90.304,73.469
			c0-1.676,0-2.398,0.172-4.359l2.223-0.113c2.535,0,4.523,0.949,4.523,3.777c0,0.605-0.055,1.961-1.297,3.055
			c-1.266,1.098-2.914,1.098-4.062,1.098c-0.609,0-0.953-0.027-1.559-0.086V73.469z"/>
		<path fill-rule="evenodd" clip-rule="evenodd" fill="#5E5E5E" d="M5.822,75.133c0,3.242,0.918,6.664,3.35,9.164
			c3.383,3.418,8.281,3.418,9.654,3.418c2.855,0,4.688-0.387,5.676-0.598c0.246-1.656,0.387-2.148,0.844-3.664
			c-0.844,0.668-2.395,1.938-5.885,1.938c-2.502,0-4.969-0.812-6.695-2.645c-1.762-1.867-2.748-4.934-2.748-8.105
			c0-2.711,0.705-5.602,2.184-7.398c1.375-1.656,3.771-2.855,6.52-2.855c1.41,0,2.785,0.316,3.666,0.809
			c0.881,0.496,1.303,1.094,1.762,1.695c0.281-1.625,0.424-2.047,1.197-3.668c-2.783-1.059-4.721-1.059-6.625-1.059
			C10.229,62.164,5.822,66.75,5.822,75.133z"/>
		<path fill-rule="evenodd" clip-rule="evenodd" fill="#5E5E5E" d="M28.977,80.508c0,1.816-0.029,3.805-0.316,5.391
			c-0.115,0.664-0.26,1.07-0.49,1.645c1.613-0.176,2.883-0.176,5.766-0.176c3.404,0,5.25,0.148,6.23,0.176
			c0.201-1.5,0.287-1.902,0.863-3.547c-0.777,0.605-1.441,1.125-3.604,1.355c-0.895,0.117-1.586,0.117-1.932,0.117
			c-3.258,0-3.518-0.203-3.547-2.57v-5.188c2.479-0.059,3.807-0.059,5.363,0.086c0.98,0.117,1.297,0.258,2.047,0.719
			c-0.115-0.602-0.172-1.039-0.172-1.789c0-0.859,0.057-1.324,0.172-2.016c-0.375,0.316-0.635,0.547-1.24,0.691
			c-0.777,0.203-2.133,0.203-2.596,0.203c-1.557,0-2.422-0.059-3.574-0.145V72.32c0-0.953,0.029-2.137,0.086-3.289
			c1.152-0.059,1.816-0.086,2.941-0.086c3.373,0,3.893,0.258,4.844,1.324c-0.057-0.52-0.086-0.949-0.086-1.441
			c0-0.664,0.059-1.238,0.086-1.961c-2.076,0.086-4.555,0.172-6.748,0.172c-3.057,0-4.15-0.113-4.756-0.172
			c0.605,1.875,0.605,2.68,0.662,6.375V80.508z"/>
		<path fill-rule="evenodd" clip-rule="evenodd" fill="#5E5E5E" d="M43.799,79.527c0,1.699-0.027,4.668-0.287,6.141
			c-0.115,0.836-0.318,1.238-0.607,1.816c1.963-0.117,2.684-0.141,6.258-0.141c3.346,0,4.037,0.023,5.941,0.141
			c0.143-1.469,0.201-1.93,0.518-3.547c-0.836,0.75-1.613,1.414-5.045,1.414c-1.701,0-2.654-0.172-3.635-0.344
			c-0.143-2.137-0.229-3.664-0.229-7.703c0-8.852,0.576-9.773,0.893-10.438c-0.721,0.086-1.471,0.172-2.277,0.172
			c-0.75,0-1.961-0.113-2.221-0.172c0.289,0.75,0.461,1.27,0.576,2.883c0.088,1.414,0.115,2.797,0.115,4.531V79.527z"/>
		<path fill-rule="evenodd" clip-rule="evenodd" fill="#5E5E5E" d="M58.307,79.527c0,1.699-0.027,4.668-0.287,6.141
			c-0.115,0.836-0.316,1.238-0.605,1.816c1.961-0.117,2.682-0.141,6.258-0.141c3.344,0,4.037,0.023,5.939,0.141
			c0.145-1.469,0.201-1.93,0.52-3.547c-0.836,0.75-1.615,1.414-5.047,1.414c-1.701,0-2.652-0.172-3.633-0.344
			c-0.145-2.137-0.23-3.664-0.23-7.703c0-8.852,0.576-9.773,0.895-10.438c-0.723,0.086-1.473,0.172-2.279,0.172
			c-0.75,0-1.961-0.113-2.221-0.172c0.289,0.75,0.461,1.27,0.576,2.883c0.088,1.414,0.115,2.797,0.115,4.531V79.527z"/>
		<path fill-rule="evenodd" clip-rule="evenodd" fill="#5E5E5E" d="M72.816,80.508c0,1.816-0.029,3.805-0.316,5.391
			c-0.115,0.664-0.26,1.07-0.49,1.645c1.613-0.176,2.883-0.176,5.766-0.176c3.402,0,5.248,0.148,6.229,0.176
			c0.203-1.5,0.289-1.902,0.865-3.547c-0.777,0.605-1.441,1.125-3.604,1.355c-0.895,0.117-1.586,0.117-1.932,0.117
			c-3.26,0-3.52-0.203-3.547-2.57v-5.188c2.479-0.059,3.805-0.059,5.363,0.086c0.98,0.117,1.297,0.258,2.047,0.719
			c-0.115-0.602-0.174-1.039-0.174-1.789c0-0.859,0.059-1.324,0.174-2.016c-0.375,0.316-0.635,0.547-1.24,0.691
			c-0.779,0.203-2.135,0.203-2.596,0.203c-1.557,0-2.422-0.059-3.574-0.145V72.32c0-0.953,0.027-2.137,0.086-3.289
			c1.152-0.059,1.816-0.086,2.941-0.086c3.373,0,3.893,0.258,4.844,1.324c-0.059-0.52-0.086-0.949-0.086-1.441
			c0-0.664,0.057-1.238,0.086-1.961c-2.076,0.086-4.557,0.172-6.746,0.172c-3.059,0-4.152-0.113-4.76-0.172
			c0.607,1.875,0.607,2.68,0.664,6.375V80.508z"/>
		<path fill-rule="evenodd" clip-rule="evenodd" fill="#5E5E5E" d="M116.058,83.77c-1.516-4.02-1.766-4.723-3.883-11.031
			c-1.445-4.262-1.969-5.746-2.359-7.047c-0.703-2.363-0.422-3.102-0.352-3.418c-0.953,0.102-1.898,0.211-2.852,0.211
			s-1.906-0.109-2.859-0.211c0.461,0.668,0.641,1.023,1.023,1.797c0.602,1.305,1.133,2.57,2.5,6.203l3.984,10.961
			c0.352,0.914,0.953,2.57,1.414,4.121c0.383,1.27,0.422,1.551,0.523,2.148c0.812-0.07,1.625-0.141,2.398-0.141
			c0.812,0,1.617,0.07,2.398,0.141c0.594-2.816,0.914-3.84,2.219-7.574c1.406-4.055,2.891-8.109,4.508-12.055
			c1.203-3.031,1.906-4.297,2.508-5.461c-0.742,0.07-1.484,0.141-2.227,0.141c-0.453,0-0.945-0.035-1.406-0.105
			c-0.492-0.035-0.953-0.105-1.414-0.176c0.039,0.352,0.461,1.336-1.938,8.703L116.058,83.77z"/>
		<path fill-rule="evenodd" clip-rule="evenodd" fill="#5E5E5E" d="M129.152,80.508c0,1.816-0.031,3.805-0.32,5.391
			c-0.117,0.664-0.258,1.07-0.492,1.645c1.617-0.176,2.891-0.176,5.773-0.176c3.398,0,5.242,0.148,6.227,0.176
			c0.203-1.5,0.289-1.902,0.867-3.547c-0.781,0.605-1.445,1.125-3.609,1.355c-0.891,0.117-1.586,0.117-1.93,0.117
			c-3.258,0-3.516-0.203-3.547-2.57v-5.188c2.477-0.059,3.805-0.059,5.359,0.086c0.984,0.117,1.305,0.258,2.055,0.719
			c-0.117-0.602-0.18-1.039-0.18-1.789c0-0.859,0.062-1.324,0.18-2.016c-0.375,0.316-0.641,0.547-1.242,0.691
			c-0.781,0.203-2.133,0.203-2.594,0.203c-1.562,0-2.422-0.059-3.578-0.145V72.32c0-0.953,0.031-2.137,0.086-3.289
			c1.156-0.059,1.82-0.086,2.938-0.086c3.375,0,3.898,0.258,4.852,1.324c-0.062-0.52-0.086-0.949-0.086-1.441
			c0-0.664,0.055-1.238,0.086-1.961c-2.078,0.086-4.562,0.172-6.75,0.172c-3.055,0-4.156-0.113-4.758-0.172
			c0.602,1.875,0.602,2.68,0.664,6.375V80.508z"/>
		<path fill-rule="evenodd" clip-rule="evenodd" fill="#5E5E5E" d="M143.972,79.527c0,1.699-0.031,4.668-0.289,6.141
			c-0.117,0.836-0.312,1.238-0.602,1.816c1.961-0.117,2.68-0.141,6.258-0.141c3.344,0,4.031,0.023,5.938,0.141
			c0.141-1.469,0.203-1.93,0.516-3.547c-0.836,0.75-1.609,1.414-5.047,1.414c-1.695,0-2.648-0.172-3.633-0.344
			c-0.141-2.137-0.227-3.664-0.227-7.703c0-8.852,0.578-9.773,0.891-10.438c-0.719,0.086-1.469,0.172-2.273,0.172
			c-0.75,0-1.961-0.113-2.219-0.172c0.281,0.75,0.461,1.27,0.57,2.883c0.086,1.414,0.117,2.797,0.117,4.531V79.527z"/>
		<path fill-rule="evenodd" clip-rule="evenodd" fill="#5E5E5E" d="M158.48,79.527c0,1.699-0.023,4.668-0.289,6.141
			c-0.109,0.836-0.312,1.238-0.602,1.816c1.961-0.117,2.68-0.141,6.258-0.141c3.344,0,4.031,0.023,5.938,0.141
			c0.141-1.469,0.203-1.93,0.516-3.547c-0.836,0.75-1.609,1.414-5.039,1.414c-1.703,0-2.656-0.172-3.641-0.344
			c-0.141-2.137-0.227-3.664-0.227-7.703c0-8.852,0.578-9.773,0.891-10.438c-0.719,0.086-1.469,0.172-2.273,0.172
			c-0.75,0-1.961-0.113-2.219-0.172c0.289,0.75,0.461,1.27,0.57,2.883c0.094,1.414,0.117,2.797,0.117,4.531V79.527z"/>
	</g>
	<g id="CV">
		<path fill-rule="evenodd" clip-rule="evenodd" fill="#5E5E5E" d="M95.753,54.355c5.344-4.906,10.039-11.115,13.508-17.572
			c2.734-5.107,4.062-9.562,4.977-13.768c0.586-2.605,0.727-4.256,0.727-4.908c0-0.35-0.047-0.701-0.141-1.051l-0.312-0.1
			l-3.148,2.803c0.039,0.551,0.039,1.152,0.039,1.703c0,10.113-4.289,19.324-12.906,28.736c0.5-4.455,0.82-7.008,0.867-7.66
			l0.773-8.76c0.133-1.502,0.18-3.055,0.18-4.656c0-7.76-4.379-11.365-13.869-11.365c-7.803,0-12.139,3.305-12.139,8.16
			c0,4.857,4.152,8.16,11.545,8.16c1.505,0,2.876-0.15,4.15-0.449l0.141-0.301l-0.094-0.551l-0.273-0.1
			c-1.367,0.199-2.463,0.299-3.285,0.299c-6.023,0-9.49-2.703-9.49-6.707c0-4.355,3.65-7.461,10.128-7.461
			c6.799,0,10.268,2.854,10.268,8.412c0,0.75-0.047,1.801-0.137,3.104l-1.871,23.73L95.753,54.355z"/>
		<path fill-rule="evenodd" clip-rule="evenodd" fill="#5E5E5E" d="M68.318,22.27c-0.512,2.193-0.717,4.16-0.717,5.902
			c0,8.152,5.277,13.83,12.859,13.83c5.482,0,9.734-2.867,14.14-8.602c2.715-3.541,4.152-5.789,4.152-7.027
			c0-0.168-0.055-0.449-0.156-0.787C92.55,35.594,87.531,40.652,81.486,40.652c-6.098,0-9.939-4.217-9.939-11.467
			c0-2.531,0.307-4.947,0.871-7.027c4.559-0.676,8.863-2.023,12.756-4.385c0,0.057,0,0.057,0,0.111
			c0,4.328-3.125,7.871-9.271,10.232l-0.205,0.281l0.152,0.506l0.256,0.168c6.764-2.305,10.299-6.352,10.299-11.58
			c0-0.168,0-0.281,0-0.449c4.404-3.205,6.662-6.971,6.662-10.344c0-3.205-2-5.34-5.176-5.34c-2.921,0-6.404,1.854-10.248,5.508
			c-3.535-1.18-7.275-1.799-11.168-1.799c-8.658,0-13.525,3.541-13.525,8.32C52.949,18.729,58.123,21.877,68.318,22.27z
			 M72.879,20.865c1.639-4.666,3.688-8.77,6.146-12.311c3.434,1.629,5.482,3.934,6.148,7.139
			C81.742,18.391,77.592,20.135,72.879,20.865z M79.693,7.598c2.715-3.373,5.48-5.002,7.683-5.002c1.947,0,3.229,1.404,3.229,3.598
			c0,2.191-1.484,5.396-4.507,8.432C85.174,11.365,82.92,9.229,79.693,7.598z M68.627,21.033
			c-8.301-0.057-12.656-2.754-12.656-7.195c0-4.215,4.254-7.533,11.477-7.533c3.383,0,6.457,0.451,9.273,1.463
			C72.93,11.646,70.215,16.143,68.627,21.033z"/>
	</g>
</g>
</svg>
